<svg width="32" height="32" viewBox="0 0 32 32" fill="none" xmlns="http://www.w3.org/2000/svg">
<g clip-path="url(#clip0_537_12776)">
<path d="M16 8C16.5523 8 17 8.44771 17 9V15H23C23.5523 15 24 15.4477 24 16C24 16.5523 23.5523 17 23 17H17V23C17 23.5523 16.5523 24 16 24C15.4477 24 15 23.5523 15 23V17H9C8.44771 17 8 16.5523 8 16C8 15.4477 8.44771 15 9 15H15V9C15 8.44771 15.4477 8 16 8Z" fill="#002C77"/>
<path fill-rule="evenodd" clip-rule="evenodd" d="M16 0C7.16344 0 0 7.16344 0 16C0 24.8366 7.16344 32 16 32C24.8366 32 32 24.8366 32 16C32 7.16344 24.8366 0 16 0ZM2 16C2 8.26801 8.26801 2 16 2C23.732 2 30 8.26801 30 16C30 23.732 23.732 30 16 30C8.26801 30 2 23.732 2 16Z" fill="#002C77"/>
</g>
<defs>
<clipPath id="clip0_537_12776">
<rect width="32" height="32" fill="white"/>
</clipPath>
</defs>
</svg>
