<svg width="17" height="17" viewBox="0 0 17 17" fill="none" xmlns="http://www.w3.org/2000/svg">
<path d="M15.8268 4.05805C15.3789 4.2624 14.8871 4.38679 14.4128 4.46676C14.6411 4.43122 14.9749 4.01362 15.1066 3.8448C15.3086 3.58714 15.4843 3.29393 15.5809 2.97407C15.5897 2.94742 15.5985 2.92076 15.5809 2.90299C15.5546 2.8941 15.5282 2.8941 15.5019 2.91187C14.9661 3.1962 14.4128 3.40944 13.8243 3.56048C13.7716 3.56937 13.7365 3.56048 13.7102 3.53383C13.6575 3.48052 13.6135 3.42721 13.5608 3.38278C13.3149 3.16954 13.0514 3.00073 12.744 2.87633C12.3488 2.7164 11.9184 2.64532 11.4969 2.67198C11.0841 2.69863 10.6801 2.81414 10.3112 3.00961C9.94229 3.20508 9.61732 3.47163 9.35383 3.80038C9.09034 4.12913 8.88834 4.52895 8.79173 4.95543C8.69511 5.36415 8.7039 5.76397 8.76538 6.17268C8.77416 6.24377 8.76538 6.25265 8.7039 6.24377C6.39399 5.88836 4.47932 5.06205 2.92474 3.26728C2.86326 3.18731 2.82813 3.18731 2.76665 3.27616C2.09036 4.30683 2.41533 5.95944 3.26727 6.77687C3.38145 6.88349 3.49563 6.99011 3.61859 7.09673C3.57468 7.09673 3.01257 7.03453 2.51194 6.76798C2.44168 6.73244 2.40655 6.75021 2.40655 6.83018C2.39777 6.94568 2.40655 7.04342 2.42411 7.16781C2.55586 8.20736 3.26727 9.17583 4.25096 9.55789C4.36514 9.6112 4.49688 9.64674 4.61984 9.67339C4.39149 9.71782 4.16313 9.75336 3.52198 9.70005C3.44293 9.68228 3.41658 9.7267 3.44293 9.80667C3.92599 11.1305 4.96238 11.5304 5.73527 11.7525C5.84067 11.7703 5.94606 11.7703 6.05146 11.7969C6.04267 11.8058 6.04267 11.8058 6.03389 11.8147C5.77919 12.2145 4.88333 12.5077 4.47053 12.6588C3.7152 12.9253 2.88961 13.0497 2.09036 12.9697C1.95862 12.952 1.93227 12.952 1.89714 12.9697C1.86201 12.9875 1.88836 13.0231 1.93227 13.0586C2.09036 13.1652 2.25724 13.2629 2.42411 13.3518C2.93352 13.6272 3.4605 13.8405 4.01382 13.9915C6.87705 14.7912 10.0916 14.2048 12.2434 12.0457C13.9297 10.3487 14.5182 8.01189 14.5182 5.67512C14.5182 5.58627 14.6236 5.53296 14.6851 5.48854C15.1242 5.15091 15.4755 4.75996 15.8005 4.30683C15.8708 4.20909 15.8708 4.12024 15.8708 4.0847C15.8708 4.07582 15.8708 4.07582 15.8708 4.07582C15.8883 4.0225 15.8883 4.03139 15.8268 4.05805Z" fill="black"/>
</svg>
