<svg width="17" height="17" viewBox="0 0 17 17" fill="none" xmlns="http://www.w3.org/2000/svg">
<path fill-rule="evenodd" clip-rule="evenodd" d="M12.0912 1.5H5.67053C3.58087 1.5 1.88086 3.20001 1.88086 5.28967V11.7104C1.88086 13.8 3.58087 15.5 5.67053 15.5H12.0913C14.1808 15.5 15.8809 13.8 15.8809 11.7104V5.28967C15.8809 3.20001 14.1808 1.5 12.0912 1.5ZM15.0601 11.7104C15.0601 13.3474 13.7283 14.6793 12.0912 14.6793H5.67053C4.03343 14.6793 2.7016 13.3474 2.7016 11.7104V5.28967C2.7016 3.65257 4.03343 2.32074 5.67053 2.32074H12.0913C13.7283 2.32074 15.0601 3.65257 15.0601 5.28967V11.7104ZM8.88045 4.67188C6.76964 4.67188 5.05243 6.38908 5.05243 8.49989C5.05243 10.6107 6.76964 12.3279 8.88045 12.3279C10.9913 12.3279 12.7085 10.6107 12.7085 8.49989C12.7085 6.38908 10.9913 4.67188 8.88045 4.67188ZM8.88045 11.5072C7.2223 11.5072 5.87317 10.1581 5.87317 8.49989C5.87317 6.84175 7.2223 5.49261 8.88045 5.49261C10.5387 5.49261 11.8877 6.84175 11.8877 8.49989C11.8877 10.1581 10.5387 11.5072 8.88045 11.5072ZM11.6691 4.44324C11.6691 3.81957 12.1764 3.3121 12.8002 3.3121C13.424 3.3121 13.9314 3.81946 13.9314 4.44324C13.9314 5.06702 13.424 5.57448 12.8002 5.57448C12.1764 5.57448 11.6691 5.06702 11.6691 4.44324ZM12.4898 4.44324C12.4898 4.61435 12.6291 4.75363 12.8002 4.75363C12.9714 4.75363 13.1107 4.61435 13.1107 4.44324C13.1107 4.27202 12.9714 4.13284 12.8002 4.13284C12.6291 4.13284 12.4898 4.27202 12.4898 4.44324Z" fill="black"/>
</svg>
