<svg width="17" height="17" viewBox="0 0 17 17" fill="none" xmlns="http://www.w3.org/2000/svg">
<path d="M2.11676 6.14611H5.01932V15.5H2.11676V6.14611ZM3.56291 1.5C4.49624 1.5 5.24496 2.25037 5.24496 3.18576C5.24496 4.11087 4.49624 4.87151 3.56291 4.87151C2.62958 4.87151 1.88086 4.11087 1.88086 3.18576C1.88086 2.25037 2.62958 1.5 3.56291 1.5Z" fill="black"/>
<path d="M6.83471 6.14611H9.61419V7.42071H9.65522C10.045 6.68062 10.9886 5.90969 12.4039 5.90969C15.3373 5.90969 15.8809 7.84214 15.8809 10.3605V15.4897H12.9783V10.9464C12.9783 9.85683 12.9578 8.46916 11.4706 8.46916C9.96291 8.46916 9.72701 9.65125 9.72701 10.8744V15.5H6.83471V6.14611Z" fill="black"/>
</svg>
