<svg width="17" height="17" viewBox="0 0 17 17" fill="none" xmlns="http://www.w3.org/2000/svg">
<path d="M10.6239 7.40956C10.5381 7.10561 10.2221 6.92871 9.91806 7.01445C9.61401 7.10019 9.43704 7.41609 9.52281 7.72003C9.70339 8.36568 9.52221 9.0585 9.04863 9.53318L5.17505 13.4054C4.45085 14.1295 3.27654 14.1296 2.55217 13.4057C1.8278 12.6817 1.82766 11.5078 2.55186 10.7837L6.42545 6.91092C6.67889 6.6569 7.00091 6.48225 7.35208 6.4083C7.66186 6.34636 7.86276 6.04512 7.80079 5.73548C7.73882 5.42584 7.43748 5.22499 7.12773 5.28694C7.12394 5.28771 7.12019 5.28848 7.11643 5.28932C6.54821 5.40923 6.02712 5.69173 5.61665 6.10242L1.74307 9.97462C0.580888 11.1543 0.595434 13.0524 1.77555 14.2142C2.94279 15.3633 4.81644 15.3634 5.98385 14.2145L9.8574 10.3417C10.6238 9.57436 10.9168 8.45356 10.6239 7.40956Z" fill="black"/>
<path d="M16.0034 2.80299C15.4408 2.24016 14.6774 1.92406 13.8815 1.92432C13.0859 1.92245 12.3225 2.23845 11.7611 2.80202L7.88754 6.67423C7.12114 7.44156 6.82815 8.56235 7.12107 9.60639C7.20684 9.91034 7.52286 10.0872 7.82691 10.0015C8.13096 9.91576 8.30792 9.59986 8.22216 9.29591C8.04157 8.65027 8.22276 7.95745 8.69633 7.48277L12.5699 3.61113C13.2941 2.88702 14.4684 2.88688 15.1928 3.61086C15.9171 4.33481 15.9173 5.5087 15.1931 6.23282L11.3195 10.105C11.0657 10.3591 10.7433 10.5337 10.3917 10.6076C10.0825 10.672 9.88395 10.9748 9.94833 11.2839C10.0037 11.5498 10.2385 11.74 10.5101 11.7392C10.5501 11.7392 10.59 11.735 10.6291 11.7266C11.1972 11.6069 11.7182 11.3244 12.1283 10.9135L16.0019 7.04193C17.1733 5.87178 17.1739 3.97397 16.0034 2.80299Z" fill="black"/>
</svg>
