<svg xmlns="http://www.w3.org/2000/svg" xmlns:xlink="http://www.w3.org/1999/xlink" width="600" zoomAndPan="magnify" viewBox="200 200 600 600" height="200" preserveAspectRatio="xMidYMid meet" version="1.0"><defs><g/></defs><path fill="#002c77" d="M 290.757812 534.925781 C 290.824219 534.148438 290.925781 533.367188 290.960938 532.589844 C 291.738281 520.699219 291.539062 506.640625 288.691406 492.816406 L 288.691406 492.714844 C 281.269531 499.828125 273.375 507.113281 264.839844 514.699219 C 264.566406 496.578125 259.246094 481.90625 249.25 471.914062 L 249.25 471.882812 C 249.214844 471.882812 249.214844 471.882812 249.214844 471.882812 C 239.222656 461.886719 224.550781 456.566406 206.421875 456.296875 C 214.011719 447.757812 221.296875 439.867188 228.414062 432.449219 L 228.3125 432.449219 C 214.484375 429.601562 200.425781 429.363281 188.5 430.175781 C 187.753906 430.210938 186.972656 430.3125 186.195312 430.378906 C 221.941406 394.671875 252.570312 396.128906 263.480469 398.164062 C 351.070312 318.585938 392.304688 328.851562 392.304688 328.851562 C 392.304688 328.851562 402.570312 370.078125 322.980469 457.652344 C 325.011719 468.558594 326.46875 499.1875 290.757812 534.925781 Z M 429.980469 272.140625 C 365.300781 216.578125 268.328125 216.410156 203.507812 271.800781 C 139.164062 326.75 125.511719 416.492188 162.476562 486.277344 C 173.691406 507.484375 203.675781 508.941406 217.535156 489.328125 L 217.570312 489.292969 L 200.050781 471.8125 C 200.085938 471.777344 200.050781 471.777344 200.085938 471.777344 C 211.742188 470.863281 228.378906 471.8125 238.851562 482.28125 C 249.320312 492.75 250.265625 509.382812 249.351562 521.035156 C 249.351562 521.035156 249.320312 521.035156 249.320312 521.070312 L 231.835938 503.558594 C 212.046875 517.546875 213.878906 547.628906 235.324219 558.878906 C 301.125 593.503906 384.578125 583.167969 439.839844 527.914062 C 510.992188 456.773438 507.710938 338.976562 429.980469 272.140625 " fill-opacity="1" fill-rule="nonzero"/><path fill="#002c77" d="M 332.636719 407.953125 C 327.28125 413.304688 318.574219 413.304688 313.1875 407.953125 C 307.835938 402.566406 307.835938 393.859375 313.1875 388.507812 C 318.574219 383.121094 327.28125 383.121094 332.636719 388.507812 C 338.023438 393.859375 338.023438 402.566406 332.636719 407.953125 " fill-opacity="1" fill-rule="nonzero"/><g fill="#002c77" fill-opacity="1"><g transform="translate(636.497643, 361.965966)"><g><path d="M 44.3125 -17.0625 C 44.3125 -11.40625 42.390625 -7.144531 38.546875 -4.28125 C 34.703125 -1.425781 29.238281 0 22.15625 0 L 2.328125 0 L 2.328125 -62.171875 L 21.0625 -62.171875 C 23.664062 -62.171875 26.222656 -61.957031 28.734375 -61.53125 C 31.242188 -61.101562 33.488281 -60.300781 35.46875 -59.125 C 37.457031 -57.945312 39.070312 -56.300781 40.3125 -54.1875 C 41.550781 -52.082031 42.171875 -49.347656 42.171875 -45.984375 C 42.171875 -42.835938 41.367188 -39.960938 39.765625 -37.359375 C 38.160156 -34.753906 35.738281 -32.878906 32.5 -31.734375 C 36.46875 -30.492188 39.425781 -28.757812 41.375 -26.53125 C 43.332031 -24.3125 44.3125 -21.15625 44.3125 -17.0625 Z M 32.40625 -44.6875 C 32.40625 -46.5 32.0625 -47.976562 31.375 -49.125 C 30.6875 -50.269531 29.800781 -51.148438 28.71875 -51.765625 C 27.644531 -52.390625 26.441406 -52.796875 25.109375 -52.984375 C 23.773438 -53.171875 22.425781 -53.265625 21.0625 -53.265625 L 12.203125 -53.265625 L 12.203125 -36.109375 L 21.0625 -36.109375 C 22.425781 -36.109375 23.773438 -36.203125 25.109375 -36.390625 C 26.441406 -36.585938 27.644531 -36.992188 28.71875 -37.609375 C 29.800781 -38.234375 30.6875 -39.113281 31.375 -40.25 C 32.0625 -41.394531 32.40625 -42.875 32.40625 -44.6875 Z M 34.546875 -18.0625 C 34.546875 -21.175781 33.457031 -23.476562 31.28125 -24.96875 C 29.101562 -26.457031 26.0625 -27.203125 22.15625 -27.203125 L 12.203125 -27.203125 L 12.203125 -8.859375 L 22.15625 -8.859375 C 26.0625 -8.859375 29.101562 -9.613281 31.28125 -11.125 C 33.457031 -12.632812 34.546875 -14.945312 34.546875 -18.0625 Z M 34.546875 -18.0625 "/></g></g></g><g fill="#002c77" fill-opacity="1"><g transform="translate(683.516431, 361.965966)"><g><path d="M 2.328125 -44.40625 L 12.203125 -44.40625 L 12.203125 -16.96875 C 12.203125 -13.53125 12.851562 -11.144531 14.15625 -9.8125 C 15.457031 -8.476562 17.347656 -7.8125 19.828125 -7.8125 C 23.441406 -7.8125 26.40625 -9.285156 28.71875 -12.234375 C 31.039062 -15.191406 32.203125 -19.273438 32.203125 -24.484375 L 32.203125 -44.40625 L 42.078125 -44.40625 L 42.078125 0 L 32.203125 0 L 32.203125 -11.09375 C 31.222656 -7.289062 29.398438 -4.304688 26.734375 -2.140625 C 24.066406 0.015625 20.773438 1.09375 16.859375 1.09375 C 12.316406 1.09375 8.757812 -0.390625 6.1875 -3.359375 C 3.613281 -6.328125 2.328125 -10.863281 2.328125 -16.96875 Z M 2.328125 -44.40625 "/></g></g></g><g fill="#002c77" fill-opacity="1"><g transform="translate(730.53522, 361.965966)"><g><path d="M 28.203125 -50.171875 L 16.203125 -50.171875 L 16.203125 -62.171875 L 28.203125 -62.171875 Z M 37.265625 0 L 7.4375 0 L 7.4375 -8.859375 L 17.25 -8.859375 L 17.25 -35.5 L 7.4375 -35.5 L 7.4375 -44.40625 L 27.109375 -44.40625 L 27.109375 -8.859375 L 37.265625 -8.859375 Z M 37.265625 0 "/></g></g></g><g fill="#002c77" fill-opacity="1"><g transform="translate(777.554005, 361.965966)"><g><path d="M 37.359375 0 L 7.53125 0 L 7.53125 -8.859375 L 17.25 -8.859375 L 17.25 -53.265625 L 7.53125 -53.265625 L 7.53125 -62.171875 L 27.109375 -62.171875 L 27.109375 -8.859375 L 37.359375 -8.859375 Z M 37.359375 0 "/></g></g></g><g fill="#002c77" fill-opacity="1"><g transform="translate(824.572797, 361.965966)"><g><path d="M 44.875 -14.15625 C 44.375 -9.476562 42.539062 -5.765625 39.375 -3.015625 C 36.21875 -0.273438 32.273438 1.09375 27.546875 1.09375 C 24.929688 1.09375 22.546875 0.664062 20.390625 -0.1875 C 18.234375 -1.050781 16.390625 -2.242188 14.859375 -3.765625 C 13.335938 -5.285156 12.15625 -7.117188 11.3125 -9.265625 C 10.46875 -11.410156 10.046875 -13.753906 10.046875 -16.296875 L 10.046875 -35.5 L 0 -35.5 L 0 -44.40625 L 10.046875 -44.40625 L 10.046875 -62.171875 L 19.921875 -62.171875 L 19.921875 -44.40625 L 38.546875 -44.40625 L 38.546875 -35.5 L 19.921875 -35.5 L 19.921875 -16.296875 C 19.921875 -13.429688 20.617188 -11.300781 22.015625 -9.90625 C 23.410156 -8.507812 25.253906 -7.8125 27.546875 -7.8125 C 30.335938 -7.8125 32.414062 -8.617188 33.78125 -10.234375 C 35.144531 -11.859375 35.953125 -13.816406 36.203125 -16.109375 Z M 44.875 -14.15625 "/></g></g></g><g fill="#002c77" fill-opacity="1"><g transform="translate(871.591589, 361.965966)"><g/></g></g><g fill="#002c77" fill-opacity="1"><g transform="translate(918.610367, 361.965966)"><g><path d="M 45.78125 -44.40625 L 39.109375 0 L 26.921875 0 L 22.25 -26.734375 L 17.484375 0 L 5.28125 0 L -1.375 -44.40625 L 8.296875 -44.40625 L 12.203125 -14.71875 L 16.96875 -44.40625 L 27.390625 -44.40625 L 32.203125 -14.71875 L 36.109375 -44.40625 Z M 45.78125 -44.40625 "/></g></g></g><g fill="#002c77" fill-opacity="1"><g transform="translate(965.629145, 361.965966)"><g><path d="M 28.203125 -50.171875 L 16.203125 -50.171875 L 16.203125 -62.171875 L 28.203125 -62.171875 Z M 37.265625 0 L 7.4375 0 L 7.4375 -8.859375 L 17.25 -8.859375 L 17.25 -35.5 L 7.4375 -35.5 L 7.4375 -44.40625 L 27.109375 -44.40625 L 27.109375 -8.859375 L 37.265625 -8.859375 Z M 37.265625 0 "/></g></g></g><g fill="#002c77" fill-opacity="1"><g transform="translate(1012.647923, 361.965966)"><g><path d="M 44.875 -14.15625 C 44.375 -9.476562 42.539062 -5.765625 39.375 -3.015625 C 36.21875 -0.273438 32.273438 1.09375 27.546875 1.09375 C 24.929688 1.09375 22.546875 0.664062 20.390625 -0.1875 C 18.234375 -1.050781 16.390625 -2.242188 14.859375 -3.765625 C 13.335938 -5.285156 12.15625 -7.117188 11.3125 -9.265625 C 10.46875 -11.410156 10.046875 -13.753906 10.046875 -16.296875 L 10.046875 -35.5 L 0 -35.5 L 0 -44.40625 L 10.046875 -44.40625 L 10.046875 -62.171875 L 19.921875 -62.171875 L 19.921875 -44.40625 L 38.546875 -44.40625 L 38.546875 -35.5 L 19.921875 -35.5 L 19.921875 -16.296875 C 19.921875 -13.429688 20.617188 -11.300781 22.015625 -9.90625 C 23.410156 -8.507812 25.253906 -7.8125 27.546875 -7.8125 C 30.335938 -7.8125 32.414062 -8.617188 33.78125 -10.234375 C 35.144531 -11.859375 35.953125 -13.816406 36.203125 -16.109375 Z M 44.875 -14.15625 "/></g></g></g><g fill="#002c77" fill-opacity="1"><g transform="translate(1059.666701, 361.965966)"><g><path d="M 42.078125 0 L 32.203125 0 L 32.203125 -27.390625 C 32.203125 -30.859375 31.550781 -33.257812 30.25 -34.59375 C 28.945312 -35.925781 27.054688 -36.59375 24.578125 -36.59375 C 20.929688 -36.59375 17.957031 -35.113281 15.65625 -32.15625 C 13.351562 -29.207031 12.203125 -25.128906 12.203125 -19.921875 L 12.203125 0 L 2.328125 0 L 2.328125 -62.171875 L 12.203125 -62.171875 L 12.203125 -33.25 C 13.179688 -37.09375 15.003906 -40.085938 17.671875 -42.234375 C 20.335938 -44.378906 23.628906 -45.453125 27.546875 -45.453125 C 32.085938 -45.453125 35.644531 -43.972656 38.21875 -41.015625 C 40.789062 -38.066406 42.078125 -33.523438 42.078125 -27.390625 Z M 42.078125 0 "/></g></g></g><g fill="#002c77" fill-opacity="1"><g transform="translate(563.523594, 523.305585)"><g><path d="M 82.40625 -80.90625 C 82.40625 -69.351562 78.894531 -60.757812 71.875 -55.125 C 64.863281 -49.5 55.082031 -46.6875 42.53125 -46.6875 L 22.640625 -46.6875 L 22.640625 0 L 4.328125 0 L 4.328125 -115.390625 L 42.359375 -115.390625 C 55.023438 -115.390625 64.863281 -112.484375 71.875 -106.671875 C 78.894531 -100.867188 82.40625 -92.28125 82.40625 -80.90625 Z M 64.109375 -81.171875 C 64.109375 -87.066406 62.175781 -91.484375 58.3125 -94.421875 C 54.445312 -97.367188 49.1875 -98.84375 42.53125 -98.84375 L 22.640625 -98.84375 L 22.640625 -63.21875 L 42.53125 -63.21875 C 49.1875 -63.21875 54.445312 -64.691406 58.3125 -67.640625 C 62.175781 -70.585938 64.109375 -75.097656 64.109375 -81.171875 Z M 64.109375 -81.171875 "/></g></g></g><g fill="#002c77" fill-opacity="1"><g transform="translate(650.780603, 523.305585)"><g><path d="M 84.53125 -41.109375 C 84.53125 -34.679688 83.507812 -28.84375 81.46875 -23.59375 C 79.4375 -18.351562 76.519531 -13.832031 72.71875 -10.03125 C 68.914062 -6.226562 64.363281 -3.265625 59.0625 -1.140625 C 53.757812 0.972656 47.835938 2.03125 41.296875 2.03125 C 34.867188 2.03125 29 0.972656 23.6875 -1.140625 C 18.382812 -3.265625 13.832031 -6.226562 10.03125 -10.03125 C 6.226562 -13.832031 3.3125 -18.351562 1.28125 -23.59375 C -0.75 -28.84375 -1.765625 -34.679688 -1.765625 -41.109375 C -1.765625 -47.359375 -0.75 -53.148438 1.28125 -58.484375 C 3.3125 -63.816406 6.226562 -68.414062 10.03125 -72.28125 C 13.832031 -76.144531 18.382812 -79.117188 23.6875 -81.203125 C 29 -83.296875 34.867188 -84.34375 41.296875 -84.34375 C 47.835938 -84.34375 53.757812 -83.296875 59.0625 -81.203125 C 64.363281 -79.117188 68.914062 -76.144531 72.71875 -72.28125 C 76.519531 -68.414062 79.4375 -63.816406 81.46875 -58.484375 C 83.507812 -53.148438 84.53125 -47.359375 84.53125 -41.109375 Z M 66.3125 -41.109375 C 66.3125 -44.828125 65.734375 -48.347656 64.578125 -51.671875 C 63.429688 -55.003906 61.769531 -57.847656 59.59375 -60.203125 C 57.414062 -62.566406 54.773438 -64.441406 51.671875 -65.828125 C 48.578125 -67.210938 45.117188 -67.90625 41.296875 -67.90625 C 37.398438 -67.90625 33.921875 -67.210938 30.859375 -65.828125 C 27.796875 -64.441406 25.203125 -62.566406 23.078125 -60.203125 C 20.953125 -57.847656 19.316406 -55.003906 18.171875 -51.671875 C 17.023438 -48.347656 16.453125 -44.828125 16.453125 -41.109375 C 16.453125 -37.222656 17.023438 -33.6875 18.171875 -30.5 C 19.316406 -27.320312 20.953125 -24.523438 23.078125 -22.109375 C 25.203125 -19.691406 27.796875 -17.816406 30.859375 -16.484375 C 33.921875 -15.160156 37.398438 -14.5 41.296875 -14.5 C 45.117188 -14.5 48.578125 -15.160156 51.671875 -16.484375 C 54.773438 -17.816406 57.414062 -19.691406 59.59375 -22.109375 C 61.769531 -24.523438 63.429688 -27.320312 64.578125 -30.5 C 65.734375 -33.6875 66.3125 -37.222656 66.3125 -41.109375 Z M 66.3125 -41.109375 "/></g></g></g><g fill="#002c77" fill-opacity="1"><g transform="translate(738.037612, 523.305585)"><g><path d="M 69.3125 0 L 13.96875 0 L 13.96875 -16.453125 L 32 -16.453125 L 32 -98.84375 L 13.96875 -98.84375 L 13.96875 -115.390625 L 50.3125 -115.390625 L 50.3125 -16.453125 L 69.3125 -16.453125 Z M 69.3125 0 "/></g></g></g><g fill="#002c77" fill-opacity="1"><g transform="translate(825.294621, 523.305585)"><g><path d="M -0.359375 -23.703125 C -0.359375 -28.535156 0.9375 -32.765625 3.53125 -36.390625 C 6.125 -40.015625 9.53125 -43.035156 13.75 -45.453125 C 17.96875 -47.867188 22.800781 -49.679688 28.25 -50.890625 C 33.695312 -52.097656 39.253906 -52.703125 44.921875 -52.703125 C 48.046875 -52.703125 50.726562 -52.640625 52.96875 -52.515625 C 55.207031 -52.398438 57.472656 -52.222656 59.765625 -51.984375 L 59.765625 -55.265625 C 59.765625 -59.566406 58.097656 -62.773438 54.765625 -64.890625 C 51.441406 -67.015625 47.066406 -68.078125 41.640625 -68.078125 C 36.691406 -68.078125 31.648438 -67.382812 26.515625 -66 C 21.390625 -64.613281 16.53125 -62.597656 11.9375 -59.953125 L 4.515625 -74.265625 C 9.929688 -77.390625 15.75 -79.847656 21.96875 -81.640625 C 28.1875 -83.441406 34.742188 -84.34375 41.640625 -84.34375 C 46.117188 -84.34375 50.523438 -83.84375 54.859375 -82.84375 C 59.191406 -81.84375 63.082031 -80.191406 66.53125 -77.890625 C 69.976562 -75.597656 72.734375 -72.609375 74.796875 -68.921875 C 76.859375 -65.234375 77.890625 -60.679688 77.890625 -55.265625 L 77.890625 0 L 59.765625 0 L 59.765625 -12.109375 C 56.878906 -7.628906 52.617188 -4.148438 46.984375 -1.671875 C 41.359375 0.796875 35.304688 2.03125 28.828125 2.03125 C 24.816406 2.03125 21.023438 1.484375 17.453125 0.390625 C 13.890625 -0.691406 10.8125 -2.320312 8.21875 -4.5 C 5.625 -6.6875 3.546875 -9.382812 1.984375 -12.59375 C 0.421875 -15.8125 -0.359375 -19.515625 -0.359375 -23.703125 Z M 33.515625 -14.328125 C 37.109375 -14.328125 40.476562 -14.78125 43.625 -15.6875 C 46.78125 -16.601562 49.566406 -17.867188 51.984375 -19.484375 C 54.398438 -21.109375 56.300781 -23.070312 57.6875 -25.375 C 59.070312 -27.675781 59.765625 -30.210938 59.765625 -32.984375 L 59.765625 -36.078125 C 56.878906 -36.546875 54.164062 -36.804688 51.625 -36.859375 C 49.09375 -36.921875 46.859375 -36.953125 44.921875 -36.953125 C 35.953125 -36.953125 29.179688 -35.773438 24.609375 -33.421875 C 20.046875 -31.066406 17.765625 -28.148438 17.765625 -24.671875 C 17.765625 -17.773438 23.015625 -14.328125 33.515625 -14.328125 Z M 33.515625 -14.328125 "/></g></g></g><g fill="#002c77" fill-opacity="1"><g transform="translate(912.55163, 523.305585)"><g><path d="M 80.375 -62.859375 C 78.1875 -63.921875 75.957031 -64.734375 73.6875 -65.296875 C 71.425781 -65.859375 68.820312 -66.140625 65.875 -66.140625 C 61.800781 -66.140625 57.984375 -65.535156 54.421875 -64.328125 C 50.859375 -63.117188 47.78125 -61.304688 45.1875 -58.890625 C 42.59375 -56.472656 40.570312 -53.453125 39.125 -49.828125 C 37.675781 -46.203125 36.953125 -41.910156 36.953125 -36.953125 L 36.953125 -16.453125 L 55.4375 -16.453125 L 55.4375 0 L 0 0 L 0 -16.453125 L 18.65625 -16.453125 L 18.65625 -65.875 L 0 -65.875 L 0 -82.40625 L 36.953125 -82.40625 L 36.953125 -61.71875 C 39.960938 -69.96875 44.398438 -75.800781 50.265625 -79.21875 C 56.128906 -82.632812 63.097656 -84.34375 71.171875 -84.34375 C 73.710938 -84.34375 76.363281 -84.078125 79.125 -83.546875 C 81.894531 -83.023438 84.609375 -82.082031 87.265625 -80.71875 Z M 80.375 -62.859375 "/></g></g></g><g fill="#002c77" fill-opacity="1"><g transform="translate(999.808639, 523.305585)"><g><path d="M 52.34375 -93.109375 L 30.0625 -93.109375 L 30.0625 -115.390625 L 52.34375 -115.390625 Z M 69.140625 0 L 13.796875 0 L 13.796875 -16.453125 L 32 -16.453125 L 32 -65.875 L 13.796875 -65.875 L 13.796875 -82.40625 L 50.3125 -82.40625 L 50.3125 -16.453125 L 69.140625 -16.453125 Z M 69.140625 0 "/></g></g></g><g fill="#002c77" fill-opacity="1"><g transform="translate(1087.065648, 523.305585)"><g><path d="M 80.1875 -24.671875 C 80.1875 -19.304688 78.976562 -14.941406 76.5625 -11.578125 C 74.144531 -8.222656 71.035156 -5.515625 67.234375 -3.453125 C 63.429688 -1.390625 59.1875 0.0351562 54.5 0.828125 C 49.820312 1.628906 45.242188 2.03125 40.765625 2.03125 C 33.273438 2.03125 25.816406 0.941406 18.390625 -1.234375 C 10.960938 -3.421875 4.535156 -6.28125 -0.890625 -9.8125 L 6.71875 -24.84375 C 13.207031 -21.070312 19.144531 -18.40625 24.53125 -16.84375 C 29.925781 -15.28125 35.335938 -14.5 40.765625 -14.5 C 48.128906 -14.5 53.488281 -15.28125 56.84375 -16.84375 C 60.207031 -18.40625 61.890625 -20.570312 61.890625 -23.34375 C 61.890625 -24.695312 61.414062 -25.816406 60.46875 -26.703125 C 59.53125 -27.585938 57.96875 -28.394531 55.78125 -29.125 C 53.601562 -29.863281 50.734375 -30.601562 47.171875 -31.34375 C 43.609375 -32.082031 39.171875 -32.863281 33.859375 -33.6875 C 29.617188 -34.394531 25.597656 -35.265625 21.796875 -36.296875 C 17.992188 -37.328125 14.644531 -38.785156 11.75 -40.671875 C 8.863281 -42.554688 6.550781 -44.941406 4.8125 -47.828125 C 3.070312 -50.722656 2.203125 -54.347656 2.203125 -58.703125 C 2.203125 -63.128906 3.335938 -66.976562 5.609375 -70.25 C 7.878906 -73.519531 10.859375 -76.210938 14.546875 -78.328125 C 18.234375 -80.453125 22.375 -81.984375 26.96875 -82.921875 C 31.5625 -83.867188 36.160156 -84.34375 40.765625 -84.34375 C 47.242188 -84.34375 53.53125 -83.503906 59.625 -81.828125 C 65.726562 -80.148438 71.082031 -77.75 75.6875 -74.625 L 68.4375 -60.484375 C 63.832031 -63.367188 59.363281 -65.328125 55.03125 -66.359375 C 50.707031 -67.390625 45.953125 -67.90625 40.765625 -67.90625 C 38.578125 -67.90625 36.304688 -67.785156 33.953125 -67.546875 C 31.597656 -67.316406 29.414062 -66.859375 27.40625 -66.171875 C 25.40625 -65.492188 23.738281 -64.582031 22.40625 -63.4375 C 21.082031 -62.289062 20.421875 -60.890625 20.421875 -59.234375 C 20.421875 -57.054688 22.347656 -55.273438 26.203125 -53.890625 C 30.066406 -52.503906 36.660156 -51.132812 45.984375 -49.78125 C 51.046875 -49.070312 55.671875 -48.171875 59.859375 -47.078125 C 64.046875 -45.992188 67.640625 -44.519531 70.640625 -42.65625 C 73.648438 -40.800781 75.992188 -38.414062 77.671875 -35.5 C 79.347656 -32.582031 80.1875 -28.972656 80.1875 -24.671875 Z M 80.1875 -24.671875 "/></g></g></g></svg>